<?xml version="1.0" encoding="UTF-8"?>
<svg id="Layer_2" data-name="Layer 2" xmlns="http://www.w3.org/2000/svg" viewBox="0 0 292.26 279.14">
  <defs>
    <style>
      .cls-1 {
        fill: #f4eeff;
        stroke-width: 0px;
      }
    </style>
  </defs>
  <g id="Layer_1-2" data-name="Layer 1">
    <g>
      <path class="cls-1" d="m4.5,39.92v25.38H0V.18h15.71c6.69,0,11.81,1.58,15.35,4.75,3.54,3.16,5.31,7.79,5.31,13.87s-1.98,11.2-5.93,15.17c-3.95,3.97-9.48,5.95-16.6,5.95H4.5Zm0-35.6v31.47h9.26c5.87,0,10.34-1.43,13.4-4.29,3.06-2.86,4.59-6.91,4.59-12.15s-1.4-8.79-4.2-11.28c-2.8-2.5-7.02-3.75-12.65-3.75H4.5Z"/>
      <path class="cls-1" d="m78.47,65.3h-4.18v-9.31h-.18c-1.48,3.18-3.64,5.71-6.47,7.61-2.83,1.89-5.97,2.84-9.42,2.84-4.42,0-7.92-1.24-10.49-3.72-2.57-2.48-3.86-5.62-3.86-9.4,0-4,1.26-7.23,3.79-9.7,2.53-2.47,6.91-4.17,13.15-5.11l13.49-2.04v-1.5c-.18-4.48-1.22-7.85-3.11-10.1-1.89-2.25-4.69-3.38-8.38-3.38-2.79,0-5.33.46-7.63,1.38-2.3.92-4.47,2.37-6.49,4.34l-2.68-2.72c2.42-2.33,5-4.05,7.72-5.15s5.77-1.66,9.13-1.66c5.18,0,9.07,1.48,11.69,4.45,2.62,2.97,3.93,7.28,3.93,12.94v30.24Zm-4.18-20.48v-4.54l-12.81,1.86c-5,.73-8.45,1.95-10.35,3.68-1.91,1.72-2.86,4.16-2.86,7.31,0,2.75.92,5.03,2.75,6.81,1.83,1.79,4.38,2.68,7.65,2.68,4.48,0,8.2-1.66,11.17-4.97,2.97-3.32,4.45-7.59,4.45-12.83Z"/>
      <path class="cls-1" d="m88.05,61.94l2.13-3.5c1.54,1.12,3.33,2.09,5.36,2.91,2.03.82,4.27,1.23,6.72,1.23,3.88,0,6.75-.89,8.63-2.68,1.88-1.79,2.82-4.16,2.82-7.13,0-2.15-.7-3.97-2.09-5.45-1.39-1.48-4.45-2.98-9.17-4.5-4.72-1.51-8.01-3.29-9.88-5.33-1.86-2.04-2.79-4.5-2.79-7.38,0-3.81,1.35-6.84,4.04-9.08,2.69-2.24,6.18-3.36,10.44-3.36,2.09,0,4.17.26,6.24.77,2.07.51,4.15,1.38,6.24,2.59l-2.09,3.41c-1.48-.85-3.13-1.55-4.95-2.11s-3.68-.84-5.59-.84c-3.24,0-5.74.75-7.52,2.25-1.77,1.5-2.66,3.44-2.66,5.83s.67,4.05,2.02,5.34c1.35,1.29,4,2.6,7.97,3.93,5.02,1.67,8.6,3.47,10.74,5.43,2.13,1.95,3.2,4.66,3.2,8.11,0,4.36-1.38,7.79-4.13,10.31-2.75,2.51-6.54,3.77-11.35,3.77-2.54,0-5.02-.37-7.42-1.11-2.41-.74-4.72-1.87-6.93-3.38Z"/>
      <path class="cls-1" d="m124.15,61.94l2.13-3.5c1.54,1.12,3.33,2.09,5.36,2.91,2.03.82,4.27,1.23,6.72,1.23,3.88,0,6.75-.89,8.63-2.68,1.88-1.79,2.82-4.16,2.82-7.13,0-2.15-.7-3.97-2.09-5.45-1.39-1.48-4.45-2.98-9.17-4.5-4.72-1.51-8.01-3.29-9.88-5.33-1.86-2.04-2.79-4.5-2.79-7.38,0-3.81,1.35-6.84,4.04-9.08,2.69-2.24,6.18-3.36,10.44-3.36,2.09,0,4.17.26,6.24.77,2.07.51,4.15,1.38,6.24,2.59l-2.09,3.41c-1.48-.85-3.13-1.55-4.95-2.11s-3.68-.84-5.59-.84c-3.24,0-5.74.75-7.52,2.25-1.77,1.5-2.66,3.44-2.66,5.83s.67,4.05,2.02,5.34c1.35,1.29,4,2.6,7.97,3.93,5.02,1.67,8.6,3.47,10.74,5.43,2.13,1.95,3.2,4.66,3.2,8.11,0,4.36-1.38,7.79-4.13,10.31-2.75,2.51-6.54,3.77-11.35,3.77-2.54,0-5.02-.37-7.42-1.11-2.41-.74-4.72-1.87-6.93-3.38Z"/>
      <path class="cls-1" d="m166.7,7.27c-1.03,0-1.89-.36-2.59-1.09-.7-.73-1.04-1.59-1.04-2.59s.35-1.88,1.04-2.57c.7-.68,1.56-1.02,2.59-1.02s1.95.34,2.68,1.02c.73.68,1.09,1.52,1.09,2.52s-.36,1.91-1.09,2.63-1.62,1.09-2.68,1.09Zm2.13,58.03h-4.18V18.8h4.18v46.5Z"/>
      <path class="cls-1" d="m202.39,66.43c-6.78,0-12.15-2.23-16.1-6.7-3.95-4.47-5.93-10.27-5.93-17.42,0-7.72,2.07-13.76,6.2-18.12,4.13-4.36,9.57-6.54,16.33-6.54s11.87,2.16,15.71,6.49c3.84,4.33,5.77,10.32,5.77,17.98,0,7.24-1.96,13.09-5.88,17.57-3.92,4.48-9.29,6.72-16.1,6.72Zm.14-3.81c5.6,0,9.91-1.82,12.94-5.45,3.03-3.63,4.54-8.67,4.54-15.12s-1.51-11.72-4.52-15.26c-3.01-3.54-7.27-5.31-12.78-5.31s-9.85,1.85-13.1,5.54c-3.25,3.69-4.88,8.83-4.88,15.39,0,6.08,1.59,10.97,4.77,14.67s7.52,5.54,13.03,5.54Z"/>
      <path class="cls-1" d="m271.69,65.3h-4.18v-27.06c0-5.6-1.01-9.79-3.02-12.58-2.01-2.79-5.03-4.18-9.06-4.18-4.48,0-8.16,1.64-11.03,4.93-2.88,3.29-4.31,7.35-4.31,12.19v26.7h-4.18V18.8h4.18v8.45h.18c1.7-3.21,3.87-5.61,6.52-7.2,2.65-1.59,5.77-2.38,9.38-2.38,5.02,0,8.87,1.67,11.53,5.02,2.66,3.34,4,8.12,4,14.33v28.29Z"/>
      <path class="cls-1" d="m288.58,66.12c-1.06,0-1.94-.34-2.63-1.02-.7-.68-1.04-1.55-1.04-2.61s.35-1.93,1.04-2.61c.7-.68,1.57-1.02,2.63-1.02s1.94.34,2.63,1.02c.7.68,1.04,1.55,1.04,2.61s-.35,1.93-1.04,2.61c-.7.68-1.57,1.02-2.63,1.02Z"/>
      <path class="cls-1" d="m4.5,161.3H0v-65.12h4.5v65.12Z"/>
      <path class="cls-1" d="m53.13,152.85c-1.54,2.94-3.79,5.27-6.74,6.99-2.95,1.73-6.29,2.59-10.01,2.59-5.72,0-10.39-2.09-14.01-6.27-3.62-4.18-5.43-9.95-5.43-17.3s1.98-13.58,5.93-18.23c3.95-4.65,9.07-6.97,15.37-6.97,3.48,0,6.46.71,8.92,2.13,2.47,1.42,4.46,3.57,5.97,6.45h.18v-29.79h4.18v68.84h-4.18v-8.45h-.18Zm-31.83-14.35c0,6.42,1.43,11.38,4.29,14.87,2.86,3.5,6.55,5.24,11.06,5.24,5.3,0,9.4-1.64,12.31-4.93,2.91-3.28,4.36-7.29,4.36-12.01v-8.67c0-4.33-1.37-8-4.11-11.01-2.74-3.01-6.43-4.52-11.06-4.52s-8.86,1.87-12.06,5.61c-3.19,3.74-4.79,8.88-4.79,15.42Z"/>
      <path class="cls-1" d="m107.8,138.23h-34.42c0,7.14,1.58,12.33,4.75,15.55,3.16,3.22,7.2,4.84,12.1,4.84,2.33,0,4.63-.39,6.9-1.18s4.48-2.03,6.63-3.72l2.36,3.04c-2.51,1.97-5.09,3.41-7.74,4.31s-5.58,1.36-8.79,1.36c-5.72,0-10.58-1.94-14.58-5.83-4-3.89-5.99-10.16-5.99-18.82,0-6.81,1.93-12.53,5.79-17.17,3.86-4.63,8.88-6.95,15.05-6.95,5.78,0,10.22,2.03,13.31,6.08,3.09,4.06,4.63,9.6,4.63,16.62v1.86Zm-4.36-3.81c-.18-5.36-1.47-9.52-3.86-12.49-2.39-2.97-5.69-4.45-9.9-4.45s-7.97,1.46-10.83,4.38c-2.86,2.92-4.62,7.11-5.29,12.56h29.88Z"/>
      <path class="cls-1" d="m151.31,161.3h-4.18v-9.31h-.18c-1.48,3.18-3.64,5.71-6.47,7.61-2.83,1.89-5.97,2.84-9.42,2.84-4.42,0-7.92-1.24-10.49-3.72-2.57-2.48-3.86-5.62-3.86-9.4,0-4,1.26-7.23,3.79-9.7,2.53-2.47,6.91-4.17,13.15-5.11l13.49-2.04v-1.5c-.18-4.48-1.22-7.85-3.11-10.1-1.89-2.25-4.69-3.38-8.38-3.38-2.79,0-5.33.46-7.63,1.38-2.3.92-4.47,2.37-6.49,4.34l-2.68-2.72c2.42-2.33,5-4.05,7.72-5.15s5.77-1.66,9.13-1.66c5.18,0,9.07,1.48,11.69,4.45,2.62,2.97,3.93,7.28,3.93,12.94v30.24Zm-4.18-20.48v-4.54l-12.81,1.86c-5,.73-8.45,1.95-10.35,3.68-1.91,1.72-2.86,4.16-2.86,7.31,0,2.75.92,5.03,2.75,6.81,1.83,1.79,4.38,2.68,7.65,2.68,4.48,0,8.2-1.66,11.17-4.97,2.97-3.32,4.45-7.59,4.45-12.83Z"/>
      <path class="cls-1" d="m160.89,157.94l2.13-3.5c1.54,1.12,3.33,2.09,5.36,2.91,2.03.82,4.27,1.23,6.72,1.23,3.88,0,6.75-.89,8.63-2.68,1.88-1.79,2.82-4.16,2.82-7.13,0-2.15-.7-3.97-2.09-5.45-1.39-1.48-4.45-2.98-9.17-4.5-4.72-1.51-8.01-3.29-9.88-5.33-1.86-2.04-2.79-4.5-2.79-7.38,0-3.81,1.35-6.84,4.04-9.08,2.69-2.24,6.18-3.36,10.44-3.36,2.09,0,4.17.26,6.24.77,2.07.51,4.15,1.38,6.24,2.59l-2.09,3.41c-1.48-.85-3.13-1.55-4.95-2.11s-3.68-.84-5.59-.84c-3.24,0-5.74.75-7.52,2.25-1.77,1.5-2.66,3.44-2.66,5.83s.67,4.05,2.02,5.34c1.35,1.29,4,2.6,7.97,3.93,5.02,1.67,8.6,3.47,10.74,5.43,2.13,1.95,3.2,4.66,3.2,8.11,0,4.36-1.38,7.79-4.13,10.31-2.75,2.51-6.54,3.77-11.35,3.77-2.54,0-5.02-.37-7.42-1.11-2.41-.74-4.72-1.87-6.93-3.38Z"/>
      <path class="cls-1" d="m204.3,162.12c-1.06,0-1.94-.34-2.63-1.02-.7-.68-1.04-1.55-1.04-2.61s.35-1.93,1.04-2.61c.7-.68,1.57-1.02,2.63-1.02s1.94.34,2.63,1.02c.7.68,1.04,1.55,1.04,2.61s-.35,1.93-1.04,2.61c-.7.68-1.57,1.02-2.63,1.02Z"/>
      <path class="cls-1" d="m0,257.3v-65.12h16.3c10.81,0,19.03,2.68,24.66,8.04,5.63,5.36,8.45,13.23,8.45,23.61s-3.02,18.56-9.06,24.52c-6.04,5.96-14.37,8.95-25,8.95H0Zm4.5-60.99v56.9h10.22c9.66,0,17.07-2.5,22.25-7.52,5.18-5.01,7.77-12.24,7.77-21.68s-2.43-16.46-7.29-20.96c-4.86-4.5-12.13-6.74-21.82-6.74H4.5Z"/>
      <path class="cls-1" d="m97.18,234.23h-34.42c0,7.14,1.58,12.33,4.75,15.55,3.16,3.22,7.2,4.84,12.1,4.84,2.33,0,4.63-.39,6.9-1.18s4.48-2.03,6.63-3.72l2.36,3.04c-2.51,1.97-5.09,3.41-7.74,4.31s-5.58,1.36-8.79,1.36c-5.72,0-10.58-1.94-14.58-5.83-4-3.89-5.99-10.16-5.99-18.82,0-6.81,1.93-12.53,5.79-17.17,3.86-4.63,8.88-6.95,15.05-6.95,5.78,0,10.22,2.03,13.31,6.08,3.09,4.06,4.63,9.6,4.63,16.62v1.86Zm-4.36-3.81c-.18-5.36-1.47-9.52-3.86-12.49-2.39-2.97-5.69-4.45-9.9-4.45s-7.97,1.46-10.83,4.38c-2.86,2.92-4.62,7.11-5.29,12.56h29.88Z"/>
      <path class="cls-1" d="m104.31,253.94l2.13-3.5c1.54,1.12,3.33,2.09,5.36,2.91,2.03.82,4.27,1.23,6.72,1.23,3.88,0,6.75-.89,8.63-2.68,1.88-1.79,2.82-4.16,2.82-7.13,0-2.15-.7-3.97-2.09-5.45-1.39-1.48-4.45-2.98-9.17-4.5-4.72-1.51-8.01-3.29-9.88-5.33-1.86-2.04-2.79-4.5-2.79-7.38,0-3.81,1.35-6.84,4.04-9.08,2.69-2.24,6.18-3.36,10.44-3.36,2.09,0,4.17.26,6.24.77,2.07.51,4.15,1.38,6.24,2.59l-2.09,3.41c-1.48-.85-3.13-1.55-4.95-2.11s-3.68-.84-5.59-.84c-3.24,0-5.74.75-7.52,2.25-1.77,1.5-2.66,3.44-2.66,5.83s.67,4.05,2.02,5.34c1.35,1.29,4,2.6,7.97,3.93,5.02,1.67,8.6,3.47,10.74,5.43,2.13,1.95,3.2,4.66,3.2,8.11,0,4.36-1.38,7.79-4.13,10.31-2.75,2.51-6.54,3.77-11.35,3.77-2.54,0-5.02-.37-7.42-1.11-2.41-.74-4.72-1.87-6.93-3.38Z"/>
      <path class="cls-1" d="m146.86,199.27c-1.03,0-1.89-.36-2.59-1.09-.7-.73-1.04-1.59-1.04-2.59s.35-1.88,1.04-2.57c.7-.68,1.56-1.02,2.59-1.02s1.95.34,2.68,1.02c.73.68,1.09,1.52,1.09,2.52s-.36,1.91-1.09,2.63-1.62,1.09-2.68,1.09Zm2.13,58.03h-4.18v-46.5h4.18v46.5Z"/>
      <path class="cls-1" d="m201.08,254.58c0,8.11-1.9,14.24-5.7,18.37-3.8,4.13-9.33,6.2-16.6,6.2-2.94,0-5.65-.31-8.13-.93-2.48-.62-5.01-1.61-7.58-2.97l1.77-3.41c2.3,1.24,4.55,2.13,6.74,2.68,2.19.54,4.65.82,7.38.82,5.39,0,9.73-1.54,13.01-4.63s4.93-8.08,4.93-14.99v-6.77h-.18c-1.82,3.15-4.13,5.52-6.95,7.11-2.82,1.59-6.08,2.38-9.81,2.38-5.69,0-10.35-2.04-13.99-6.11-3.63-4.07-5.45-9.89-5.45-17.46s1.95-13.47,5.86-18.16,9.05-7.04,15.44-7.04c3.39,0,6.33.71,8.83,2.13,2.5,1.42,4.52,3.54,6.06,6.36h.18v-7.36h4.18v43.78Zm-4.18-16.71v-9.22c0-4.12-1.39-7.67-4.15-10.67-2.77-3-6.38-4.5-10.83-4.5-5.12,0-9.23,1.92-12.35,5.77-3.12,3.84-4.68,8.93-4.68,15.26,0,6.9,1.45,11.98,4.36,15.24s6.66,4.88,11.26,4.88c5,0,8.98-1.62,11.94-4.86,2.97-3.24,4.45-7.21,4.45-11.9Z"/>
      <path class="cls-1" d="m251.75,257.3h-4.18v-27.06c0-5.6-1.01-9.79-3.02-12.58-2.01-2.79-5.03-4.18-9.06-4.18-4.48,0-8.16,1.64-11.03,4.93-2.88,3.29-4.31,7.35-4.31,12.19v26.7h-4.18v-46.5h4.18v8.45h.18c1.7-3.21,3.87-5.61,6.52-7.2,2.65-1.59,5.77-2.38,9.38-2.38,5.02,0,8.87,1.67,11.53,5.02,2.66,3.34,4,8.12,4,14.33v28.29Z"/>
      <path class="cls-1" d="m268.65,258.12c-1.06,0-1.94-.34-2.63-1.02-.7-.68-1.04-1.55-1.04-2.61s.35-1.93,1.04-2.61c.7-.68,1.57-1.02,2.63-1.02s1.94.34,2.63,1.02c.7.68,1.04,1.55,1.04,2.61s-.35,1.93-1.04,2.61c-.7.68-1.57,1.02-2.63,1.02Z"/>
    </g>
  </g>
</svg>