<?xml version="1.0" encoding="UTF-8"?>
<svg id="Layer_2" data-name="Layer 2" xmlns="http://www.w3.org/2000/svg" viewBox="0 0 284.72 257.16">
  <defs>
    <style>
      .cls-1 {
        fill: #7e35ef;
        stroke-width: 0px;
      }
    </style>
  </defs>
  <g id="Layer_1-2" data-name="Layer 1">
    <g>
      <g>
        <path class="cls-1" d="m0,2.66h54.29c3.76,0,8.05.33,12.87,1,4.81.66,9.3,2.02,13.45,4.07,4.15,2.05,7.66,5.04,10.54,8.96,2.88,3.93,4.32,9.21,4.32,15.85,0,2.88-.39,5.56-1.16,8.05-.78,2.49-1.8,4.79-3.07,6.89-1.27,2.1-2.68,3.96-4.23,5.56-1.55,1.61-3.1,2.85-4.65,3.74,1.77.78,3.71,1.88,5.81,3.32,2.1,1.44,4.07,3.32,5.89,5.64,1.83,2.32,3.32,5.15,4.48,8.47,1.16,3.32,1.74,7.14,1.74,11.46,0,6.31-1.11,11.7-3.32,16.19-2.22,4.48-5.26,8.16-9.13,11.04-3.88,2.88-8.41,4.98-13.61,6.31-5.2,1.33-10.85,1.99-16.93,1.99H0V2.66Zm3.82,114.88h53.46c4.87,0,9.66-.52,14.36-1.58,4.7-1.05,8.88-2.82,12.53-5.31s6.61-5.75,8.88-9.8c2.27-4.04,3.4-9.1,3.4-15.19,0-4.76-.75-8.77-2.24-12.04-1.49-3.26-3.32-5.98-5.48-8.13-2.16-2.16-4.4-3.87-6.72-5.15-2.32-1.27-4.26-2.24-5.81-2.91,4.54-3.21,8.24-6.64,11.12-10.29,2.88-3.65,4.32-8.36,4.32-14.11,0-4.43-.75-8.16-2.24-11.21-1.49-3.04-3.43-5.56-5.81-7.55-2.38-1.99-5.01-3.54-7.89-4.65-2.88-1.1-5.7-1.91-8.47-2.41-2.77-.5-5.31-.77-7.64-.83-2.32-.05-4.1-.08-5.31-.08H3.82v111.23ZM24.4,22.58h25.57c2.1,0,4.4.08,6.89.25,2.49.17,4.84.72,7.06,1.66,2.21.94,4.07,2.46,5.56,4.56,1.49,2.1,2.24,5.09,2.24,8.96s-.75,6.83-2.24,8.88c-1.49,2.05-3.35,3.54-5.56,4.48-2.22.94-4.57,1.49-7.06,1.66-2.49.17-4.79.25-6.89.25h-25.57v-30.71Zm0,43.99h27.89c2.32,0,4.87.08,7.64.25,2.76.17,5.4.8,7.89,1.91,2.49,1.11,4.57,2.85,6.23,5.23,1.66,2.38,2.49,5.73,2.49,10.04s-.83,7.64-2.49,9.96c-1.66,2.32-3.74,4.04-6.23,5.15-2.49,1.11-5.12,1.74-7.89,1.91-2.77.17-5.31.25-7.64.25h-27.89v-34.7Zm3.82-16.93h21.75c1.99,0,4.04-.05,6.14-.17,2.1-.11,4.01-.52,5.73-1.25,1.71-.72,3.15-1.88,4.32-3.49,1.16-1.6,1.74-3.84,1.74-6.72s-.58-5.26-1.74-6.81c-1.16-1.55-2.6-2.71-4.32-3.49-1.72-.77-3.63-1.22-5.73-1.33-2.1-.11-4.15-.17-6.14-.17h-21.75v23.41Zm0,47.98h24.07c2.1,0,4.34-.08,6.72-.25,2.38-.17,4.59-.66,6.64-1.49,2.05-.83,3.74-2.16,5.06-3.98,1.33-1.83,1.99-4.45,1.99-7.89s-.66-6.09-1.99-7.97c-1.33-1.88-3.02-3.24-5.06-4.07-2.05-.83-4.26-1.33-6.64-1.49-2.38-.17-4.62-.25-6.72-.25h-24.07v27.39Z"/>
        <path class="cls-1" d="m171,0c8.41,0,16.19,1.47,23.33,4.4,7.14,2.93,13.31,7.08,18.51,12.45,5.2,5.37,9.27,11.87,12.2,19.51,2.93,7.64,4.4,16.16,4.4,25.57s-1.47,17.93-4.4,25.57c-2.93,7.64-7,14.14-12.2,19.51-5.2,5.37-11.37,9.52-18.51,12.45-7.14,2.93-14.91,4.4-23.33,4.4s-16.19-1.47-23.33-4.4c-7.14-2.93-13.31-7.08-18.51-12.45-5.2-5.37-9.27-11.87-12.2-19.51-2.93-7.64-4.4-16.16-4.4-25.57s1.47-17.93,4.4-25.57c2.93-7.64,7-14.14,12.2-19.51,5.2-5.37,11.37-9.52,18.51-12.45,7.14-2.93,14.91-4.4,23.33-4.4Zm0,120.2c7.41,0,14.44-1.3,21.08-3.9,6.64-2.6,12.45-6.39,17.43-11.37s8.91-11.07,11.79-18.26c2.88-7.19,4.32-15.44,4.32-24.74s-1.44-17.54-4.32-24.74c-2.88-7.19-6.81-13.28-11.79-18.26-4.98-4.98-10.79-8.77-17.43-11.37-6.64-2.6-13.67-3.9-21.08-3.9s-14.58,1.3-21.17,3.9c-6.59,2.6-12.37,6.39-17.35,11.37-4.98,4.98-8.91,11.07-11.79,18.26-2.88,7.2-4.32,15.44-4.32,24.74s1.44,17.54,4.32,24.74c2.88,7.2,6.81,13.28,11.79,18.26s10.76,8.77,17.35,11.37c6.58,2.6,13.64,3.9,21.17,3.9Zm0-16.27c-4.43,0-8.69-.86-12.78-2.57-4.1-1.71-7.72-4.32-10.87-7.8-3.15-3.49-5.67-7.86-7.55-13.11-1.88-5.26-2.82-11.43-2.82-18.51s.94-13.25,2.82-18.51c1.88-5.26,4.4-9.63,7.55-13.12,3.15-3.49,6.78-6.09,10.87-7.8,4.09-1.71,8.36-2.57,12.78-2.57s8.69.86,12.78,2.57c4.09,1.72,7.72,4.32,10.87,7.8,3.15,3.49,5.67,7.86,7.55,13.12,1.88,5.26,2.82,11.43,2.82,18.51s-.94,13.26-2.82,18.51c-1.88,5.26-4.4,9.63-7.55,13.11-3.15,3.49-6.78,6.09-10.87,7.8-4.1,1.72-8.36,2.57-12.78,2.57Zm0-3.65c3.43,0,6.94-.66,10.54-1.99,3.6-1.33,6.86-3.51,9.8-6.56,2.93-3.04,5.31-7,7.14-11.87,1.83-4.87,2.74-10.84,2.74-17.93s-.91-13.06-2.74-17.93c-1.83-4.87-4.21-8.82-7.14-11.87-2.93-3.04-6.2-5.23-9.8-6.56-3.6-1.33-7.11-1.99-10.54-1.99s-7.08.66-10.63,1.99c-3.54,1.33-6.78,3.51-9.71,6.56-2.93,3.05-5.31,7-7.14,11.87-1.83,4.87-2.74,10.85-2.74,17.93s.91,13.06,2.74,17.93c1.83,4.87,4.2,8.83,7.14,11.87,2.93,3.05,6.17,5.23,9.71,6.56,3.54,1.33,7.08,1.99,10.63,1.99Z"/>
      </g>
      <g>
        <path class="cls-1" d="m284.72,257.16h-48.81c-8.3,0-15.94-1.19-22.91-3.57-6.97-2.38-12.95-6-17.93-10.87-4.98-4.87-8.88-11.04-11.7-18.51-2.82-7.47-4.23-16.24-4.23-26.31s1.41-18.98,4.23-26.4c2.82-7.42,6.72-13.56,11.7-18.43,4.98-4.87,10.96-8.5,17.93-10.87,6.97-2.38,14.61-3.57,22.91-3.57h48.81v118.53Zm-3.82-114.88h-44.99c-8.19,0-15.55,1.22-22.08,3.65-6.53,2.43-12.09,6.03-16.68,10.79-4.59,4.76-8.11,10.57-10.54,17.43-2.43,6.86-3.65,14.78-3.65,23.74s1.22,16.88,3.65,23.74c2.44,6.86,5.95,12.67,10.54,17.43,4.59,4.76,10.16,8.36,16.68,10.79,6.53,2.43,13.89,3.65,22.08,3.65h44.99v-111.23Zm-20.59,93.96h-22.08c-12.06,0-20.86-3.35-26.4-10.04-5.53-6.7-8.3-16.13-8.3-28.31s2.77-21.61,8.3-28.31c5.54-6.7,14.33-10.04,26.4-10.04h22.08v76.7Zm-3.82-73.05h-18.26c-1,0-2.46.05-4.4.17-1.94.11-4.04.5-6.31,1.16-2.27.66-4.59,1.69-6.97,3.07-2.38,1.38-4.54,3.35-6.47,5.89-1.94,2.54-3.54,5.81-4.81,9.79-1.27,3.98-1.91,8.85-1.91,14.61s.64,10.63,1.91,14.61c1.27,3.98,2.88,7.25,4.81,9.8,1.94,2.54,4.1,4.51,6.47,5.89,2.38,1.38,4.71,2.41,6.97,3.07,2.27.66,4.37,1.05,6.31,1.16,1.94.11,3.4.17,4.4.17h18.26v-69.39Z"/>
        <path class="cls-1" d="m130.16,257.16h-28.22l-44.66-118.53h30.21l9.13,26.4h40.01l9.13-26.4h29.22l-44.82,118.53Zm39.35-114.88h-21.08l-9.13,26.4h-45.32l-9.13-26.4h-22.08l41.84,111.23h22.91l42-111.23Zm-71.39,40.67h36.52l-18.43,49.97-18.1-49.97Zm17.93,39.68h.33l12.95-36.03h-25.9l12.62,36.03Z"/>
      </g>
    </g>
  </g>
</svg>